<svg xmlns="http://www.w3.org/2000/svg" xmlns:xlink="http://www.w3.org/1999/xlink" width="97" height="38" viewBox="0 0 97 38">
  <defs>
    <style>
      .cls-1 {
        clip-path: url(#clip-Spring_logo);
      }

      .cls-2, .cls-4 {
        fill: #caa153;
      }

      .cls-3 {
        fill: none;
        stroke: #caa153;
        stroke-linecap: round;
      }

      .cls-4 {
        font-size: 6px;
        font-family: Gelasio-Regular, Gelasio;
        letter-spacing: 0.1em;
      }
    </style>
    <clipPath id="clip-Spring_logo">
      <rect width="97" height="38"/>
    </clipPath>
  </defs>
  <g id="Spring_logo" data-name="Spring logo" class="cls-1">
    <g id="header" transform="translate(3.297 0.897)">
      <path id="Trazado_2462" class="cls-2" d="M15.694,18.217a5.814,5.814,0,0,1-.655,2.736,7.331,7.331,0,0,1-1.717,2.172,7.917,7.917,0,0,1-2.442,1.433,7.967,7.967,0,0,1-2.8.511,12.846,12.846,0,0,1-3.929-.548A20.441,20.441,0,0,1,.8,23.086C.7,23.041.612,23,.53,22.963S.406,22.839.406,22.7a.248.248,0,0,1,.177-.247.835.835,0,0,0,.283-.177,3.93,3.93,0,0,0,.694-.9q.372-.62.619-1.043a1.186,1.186,0,0,0,.176-.283c.071-.142.142-.212.212-.212a.337.337,0,0,1,.266.177,1.957,1.957,0,0,0,.2.248,3.73,3.73,0,0,0,1.1.921,6.748,6.748,0,0,0,1.344.565,7.479,7.479,0,0,0,1.38.283,11.78,11.78,0,0,0,1.2.07A4.662,4.662,0,0,0,9.7,21.813,3.907,3.907,0,0,0,11.028,21a3.814,3.814,0,0,0,.885-1.257,4.055,4.055,0,0,0,.318-1.646,6.423,6.423,0,0,0-.656-2.973A9.926,9.926,0,0,0,9.93,12.806a19.592,19.592,0,0,0-2.124-1.928A26.54,26.54,0,0,1,5.683,9.037,9.832,9.832,0,0,1,4.04,6.986a4.865,4.865,0,0,1-.658-2.545,3.948,3.948,0,0,1,1.326-3.2A6.466,6.466,0,0,1,8.9.125,6.41,6.41,0,0,1,10.459.34a13.86,13.86,0,0,1,1.592.5,7.45,7.45,0,0,1,1.255.608q.515.323.514.574-.354.466-.6.769t-.459.588q-.213.283-.284.39c-.047.094-.1.193-.16.3a.554.554,0,0,1-.23.23,7.429,7.429,0,0,0-1.946-.919,5.922,5.922,0,0,0-1.521-.214,2.232,2.232,0,0,0-1.257.318,1.006,1.006,0,0,0-.476.883,3,3,0,0,0,.654,1.872,11.985,11.985,0,0,0,1.628,1.7q.972.847,2.123,1.8a15.4,15.4,0,0,1,2.124,2.155,11.485,11.485,0,0,1,1.627,2.739A9.078,9.078,0,0,1,15.694,18.217Z"/>
      <path id="Trazado_2463" class="cls-2" d="M31.334,2.781a4.391,4.391,0,0,1-.566,2.151Q29.954,6.419,29,7.958t-1.84,2.989L24.5,15.336a13.263,13.263,0,0,0-.761,1.451,10.83,10.83,0,0,1-.761,1.416.676.676,0,0,0-.124.176.171.171,0,0,1-.16.107c-.1,0-.154-.072-.177-.212a2.089,2.089,0,0,1-.035-.282V13.143a3.084,3.084,0,0,1,.372-.744q.372-.638.955-1.54t1.239-1.982q.654-1.08,1.238-2.052t.956-1.734a3,3,0,0,0,.372-1.08A.494.494,0,0,0,27.3,3.5a1.73,1.73,0,0,0-.635-.124h-4.6c-.261,0-.425.054-.5.159a1.043,1.043,0,0,0-.106.549V22.62a2.033,2.033,0,0,0,.106.708,2.371,2.371,0,0,0,.248.5l.248.373a.537.537,0,0,1,.1.3c0,.189-.088.276-.265.265s-.324-.018-.442-.018q-.637,0-1.4.018t-1.4.018a2.626,2.626,0,0,0-.319.019,2.6,2.6,0,0,1-.318.019.283.283,0,0,1-.319-.238.275.275,0,0,1,0-.081.362.362,0,0,1,.071-.229c.048-.06.094-.125.142-.2a1.266,1.266,0,0,0,.212-.549,7.676,7.676,0,0,0,.106-.812c.023-.3.035-.579.036-.85V3.518a7.255,7.255,0,0,0-.16-1.345A3.376,3.376,0,0,0,17.638.9a1.174,1.174,0,0,1-.159-.212A.478.478,0,0,1,17.39.44c0-.117.071-.182.212-.2A2.759,2.759,0,0,1,17.92.224a7.168,7.168,0,0,1,.867.053,7.409,7.409,0,0,0,.868.054h8.28c.212,0,.46,0,.743.018a5.253,5.253,0,0,1,.849.1,3.619,3.619,0,0,1,.793.263,1.4,1.4,0,0,1,.583.489,2.068,2.068,0,0,1,.337.752A3.8,3.8,0,0,1,31.334,2.781Z"/>
      <path id="Trazado_2464" class="cls-2" d="M48.036,24.608a.2.2,0,0,1-.071.142.538.538,0,0,1-.141.106,8.648,8.648,0,0,1-1.115-.07,8.482,8.482,0,0,0-1.114-.072q-.6,0-1.31.054t-1.309.053c-.142,0-.212-.084-.212-.248a1.7,1.7,0,0,1,.23-.813,1.835,1.835,0,0,0,.23-.884,5.5,5.5,0,0,0-.266-.867q-.265-.762-.655-1.841t-.867-2.336q-.477-1.255-.9-2.336l-.726-1.84q-.3-.76-.336-.868c-.047,0-.183.183-.406.549s-.465.767-.725,1.2-.513.861-.761,1.273-.406.666-.478.762a1.622,1.622,0,0,0-.212.849V22.2a4.376,4.376,0,0,0,.054.777,1.866,1.866,0,0,0,.159.5c.071.142.153.294.248.459a5.415,5.415,0,0,1,.284.6.14.14,0,0,1-.106.143.631.631,0,0,1-.177.034H35.017a7.013,7.013,0,0,0-.938.071,6.985,6.985,0,0,1-.937.071c-.166,0-.254-.034-.266-.106a.541.541,0,0,1,.053-.283c.024-.047.076-.154.159-.319s.17-.371.266-.619a7.563,7.563,0,0,0,.248-.778,3.117,3.117,0,0,0,.106-.793V3.978q0-.566-.07-1.5a4.082,4.082,0,0,0-.354-1.5.943.943,0,0,0-.177-.248A.386.386,0,0,1,33,.439.144.144,0,0,1,33.129.28h.013c.07-.009.141-.016.212-.018a7.571,7.571,0,0,1,.9.053,7.351,7.351,0,0,0,.9.053h3.255q1.2,0,2.619-.035T43.651.3a7.416,7.416,0,0,1,1.133.088,3.37,3.37,0,0,1,1.043.336,2.087,2.087,0,0,1,.778.694,1.959,1.959,0,0,1,.3,1.115,2.312,2.312,0,0,1-.355,1.026q-.353.637-.866,1.4t-1.116,1.54q-.6.78-1.114,1.469t-.868,1.221a1.763,1.763,0,0,0-.354.744,8.5,8.5,0,0,0,.3,1.043q.3.938.761,2.28t1.026,2.9l1.079,2.973c.341.945.641,1.763.9,2.46s.436,1.138.531,1.326c.117.236.242.473.371.709a2.757,2.757,0,0,0,.479.637,2.256,2.256,0,0,0,.211.178C47.988,24.5,48.036,24.562,48.036,24.608ZM42.3,3.907a.387.387,0,0,0-.23-.388,1.113,1.113,0,0,0-.478-.107H37.526c-.331,0-.52.065-.566.2a2.1,2.1,0,0,0-.071.655v7.042l.071.212a.638.638,0,0,0,.284-.176,1.719,1.719,0,0,0,.211-.248Q38.8,9.289,39.862,7.8q.459-.638.885-1.257c.284-.413.542-.8.778-1.149s.425-.662.567-.921A1.421,1.421,0,0,0,42.3,3.907Z"/>
      <path id="Trazado_2465" class="cls-2" d="M54.758.474a5.089,5.089,0,0,1-.371.778,4.412,4.412,0,0,0-.372,2.017V21.884a3.648,3.648,0,0,0,.336,1.82,1.914,1.914,0,0,1,.336.762c0,.164-.118.247-.354.247a4.861,4.861,0,0,1-.761-.054,9.569,9.569,0,0,0-1.222-.053,9.438,9.438,0,0,0-1.188.053,6.265,6.265,0,0,1-.866.054.218.218,0,0,1-.248-.186.162.162,0,0,1,0-.062.5.5,0,0,1,.177-.354,1.573,1.573,0,0,0,.283-.548,6.192,6.192,0,0,0,.177-.707c.046-.248.082-.489.106-.726s.035-.448.035-.638V3.412c0-.118-.006-.283-.018-.5s-.029-.437-.055-.673-.052-.454-.086-.654a1.714,1.714,0,0,0-.125-.442,1.754,1.754,0,0,0-.176-.335A.587.587,0,0,1,50.26.476.162.162,0,0,1,50.384.3a.884.884,0,0,1,.23-.036,7.452,7.452,0,0,1,.919.053,7.805,7.805,0,0,0,.955.053q.459,0,.99-.035c.356-.023.65-.035.886-.035h.248C54.71.3,54.758.356,54.758.474Z"/>
      <path id="Trazado_2466" class="cls-2" d="M72.91.51a.584.584,0,0,1-.1.354,8.46,8.46,0,0,0-.5,1.15A4.475,4.475,0,0,0,72.167,3.3V21.88a5.612,5.612,0,0,0,.107,1.1A3.41,3.41,0,0,0,72.663,24a1.865,1.865,0,0,1,.124.212.545.545,0,0,1,.055.248c0,.164-.119.247-.354.247-.283,0-.607-.018-.974-.054s-.7-.053-1.008-.053a9.049,9.049,0,0,0-.973.053,8.791,8.791,0,0,1-.974.054h-.071c-.188,0-.283-.083-.283-.247a.5.5,0,0,1,.177-.354,1.244,1.244,0,0,0,.282-.513,6.41,6.41,0,0,0,.179-.726c.046-.259.081-.514.105-.762s.035-.453.035-.619V16.146l-4.46-6.617q-.565-.849-1.167-1.685T62.153,6.2A1.6,1.6,0,0,1,62,6a.246.246,0,0,0-.2-.124c-.118,0-.176.129-.176.388V21.871a6.861,6.861,0,0,0,.1,1.1,1.912,1.912,0,0,0,.425.99c.047.048.125.137.229.266a.558.558,0,0,1,.159.337c0,.069-.04.111-.124.124a1.87,1.87,0,0,1-.2.017,8.868,8.868,0,0,1-.991-.054,9.352,9.352,0,0,0-.99-.052q-.531,0-1.168.052c-.426.035-.814.053-1.168.054H57.83c-.188,0-.284-.082-.284-.247a.517.517,0,0,1,.176-.354,2.514,2.514,0,0,0,.551-1.238,7.444,7.444,0,0,0,.158-1.38V2.934q0-.336-.018-.693a5.735,5.735,0,0,0-.071-.654,1.663,1.663,0,0,0-.124-.442,2.67,2.67,0,0,0-.2-.318A.556.556,0,0,1,57.9.508a.167.167,0,0,1,.141-.177,1.039,1.039,0,0,1,.248-.036c.307,0,.636.012.991.036s.685.035.99.035c.426,0,.861-.006,1.31-.018S62.463.33,62.888.33h.266c.106,0,.16.059.16.177a.753.753,0,0,1-.23.441,1.01,1.01,0,0,0-.229.694A1.557,1.557,0,0,0,63,2.173a6.709,6.709,0,0,0,.707,1.115q.426.549.812,1.043.708.991,1.434,1.982T67.384,8.3a5.831,5.831,0,0,1,.638.991c.164.331.354.673.566,1.027a2.372,2.372,0,0,0,.124.212c.059.094.11.141.159.141s.076-.047.088-.141.018-.154.018-.178V2.385a2.358,2.358,0,0,0-.283-1.239.975.975,0,0,0-.336-.318C68.182.71,68.093.6,68.093.509a.168.168,0,0,1,.141-.177A1.108,1.108,0,0,1,68.482.3c.354,0,.693.012,1.027.036s.672.035,1.025.035c.283,0,.614-.006.991-.018s.708-.018.991-.018h.248C72.863.333,72.91.392,72.91.51Z"/>
      <path id="Trazado_2467" class="cls-2" d="M90,24.854c0,.048-.041.077-.124.089a1.639,1.639,0,0,1-.2.018H89.4a9.756,9.756,0,0,1-2.566-.793,22.419,22.419,0,0,1-2.389-1.287,28.631,28.631,0,0,1-3.591-2.691,22.438,22.438,0,0,1-3.2-3.432,18.22,18.22,0,0,1-2.3-4,11.286,11.286,0,0,1-.885-4.388,9.775,9.775,0,0,1,.619-3.681,6.072,6.072,0,0,1,1.732-2.442A7.042,7.042,0,0,1,79.5.9,13.355,13.355,0,0,1,82.989.477h3.645q.318,0,.354.2a2.826,2.826,0,0,1,.035.478q0,.921.036,1.822T87.094,4.8a.557.557,0,0,1-.035.177c-.024.07-.06.106-.106.106a1.987,1.987,0,0,1-.39-.354,2.147,2.147,0,0,0-.779-.53,5.912,5.912,0,0,0-1.044-.336,7.093,7.093,0,0,0-1.1-.16c-.365-.023-.693-.035-.973-.035a4.923,4.923,0,0,0-3.415,1.221,4.39,4.39,0,0,0-1.362,3.45,7.7,7.7,0,0,0,.565,2.8,16.106,16.106,0,0,0,1.434,2.815,20.4,20.4,0,0,0,1.928,2.564,17.163,17.163,0,0,0,2.017,1.982,5.058,5.058,0,0,0,.548.408,1.183,1.183,0,0,0,.656.2.6.6,0,0,0,.637-.425,2.592,2.592,0,0,0,.141-.813V10.31a4.02,4.02,0,0,0-.177-1.2,5.971,5.971,0,0,0-.39-.973,7.487,7.487,0,0,0-.389-.673.951.951,0,0,1-.176-.336c0-.094.057-.142.176-.142a.989.989,0,0,1,.265.035c.083.023.179.047.285.071s.241.047.4.071a4.888,4.888,0,0,0,.673.036h1.627a4.533,4.533,0,0,0,.9-.054,1.705,1.705,0,0,1,.443-.053c.165,0,.247.059.247.177a2.586,2.586,0,0,1-.354.921A3.381,3.381,0,0,0,89,9.779V20.572c0,.26.012.583.035.973a11.054,11.054,0,0,0,.142,1.2,7.726,7.726,0,0,0,.284,1.15,2.339,2.339,0,0,0,.424.812C89.966,24.785,90,24.835,90,24.854Z"/>
    </g>
    <line id="Line_1" data-name="Line 1" class="cls-3" x2="95" transform="translate(1 29)"/>
    <text id="Instrumentos_premium" data-name="Instrumentos premium" class="cls-4" transform="translate(49 37)"><tspan x="-45.517" y="0">INSTRUMENTOS PREMIUM</tspan></text>
  </g>
</svg>
